PathFileType	4	(X/Y/Z)	maxSprint.trc
DataRate	CameraRate	NumFrames	NumMarkers	Units	OrigDataRate	OrigDataStartFrame	OrigNumFrames
250.000000	250.000000	4	38	mm	250.000000	188	377
Frame#	Time	RASI			LASI			LAIC			RTH1			RTH2			RTH3			RTB1			RTB2			RTB3			RMT1			RMT5			LTH1			LTH2			LTH3			LTB1			LTB3			CLAV			STRN			RACR			LACR			LMT5			RPSI			LTB2			LMT1			RAIC			LCAL			T10			C7			LPSI			RCAL			*30			*31			*32			*33			RHJC			LHJC			MTOR			MPEL			
		X1	Y1	Z1	X2	Y2	Z2	X3	Y3	Z3	X4	Y4	Z4	X5	Y5	Z5	X6	Y6	Z6	X7	Y7	Z7	X8	Y8	Z8	X9	Y9	Z9	X10	Y10	Z10	X11	Y11	Z11	X12	Y12	Z12	X13	Y13	Z13	X14	Y14	Z14	X15	Y15	Z15	X16	Y16	Z16	X17	Y17	Z17	X18	Y18	Z18	X19	Y19	Z19	X20	Y20	Z20	X21	Y21	Z21	X22	Y22	Z22	X23	Y23	Z23	X24	Y24	Z24	X25	Y25	Z25	X26	Y26	Z26	X27	Y27	Z27	X28	Y28	Z28	X29	Y29	Z29	X30	Y30	Z30	X31	Y31	Z31	X32	Y32	Z32	X33	Y33	Z33	X34	Y34	Z34	X35	Y35	Z35	X36	Y36	Z36	X37	Y37	Z37	X38	Y38	Z38	

189	0.752	315.760711669922	983.5214233398442	278.1901855468751	289.8186340332032	962.159790039063	71.23734283447268	253.0849761962892	1042.548217773438	43.98684310913087	384.7903442382815	847.9428100585942	371.3107299804689	486.2095336914065	847.064575195313	344.423309326172	535.773864746094	754.2852783203127	351.5863037109376	538.4304809570315	570.0664062500002	261.8582458496095	493.7829284667971	522.2446289062502	318.448699951172	431.4881286621096	482.0971679687502	274.3421325683595	333.4663391113282	246.9672851562501	291.0794067382814	330.6350402832032	272.834686279297	397.3606872558596	108.2200546264649	673.1157226562502	34.6520233154297	109.0459823608399	770.666625976563	25.17760276794435	18.67349815368653	626.2763671875002	58.23944473266604	-91.63616180419925	384.3695983886721	144.3647918701172	-201.7006225585939	300.5637817382814	158.1788330078126	335.554656982422	1419.087646484375	202.5442810058595	381.8247070312501	1228.9658203125	214.9105987548829	203.6859283447267	1453.701538085938	379.3806762695314	264.2902221679689	1450.66455078125	-25.73337364196779	-379.7025146484376	64.69466400146487	79.35704040527347	138.0458221435547	1032.042236328125	246.0566253662111	-148.2610626220704	333.4647521972657	101.228256225586	-348.1146240234376	54.64657974243167	185.9401550292969	241.2779693603517	1057.034057617188	343.7591247558595	-422.1412353515627	262.8123474121095	173.988754272461	140.8219757080079	1215.567626953125	169.5054779052735	200.5210113525392	1478.889892578125	174.9158325195313	133.6949768066407	1028.786743164063	149.2363586425782	187.8164978027344	411.6018981933596	283.5293579101564	578.184753417969	703.0352783203127	336.3876953125001	262.7737426757814	413.9320373535159	338.6054077148439	-371.4970703125001	234.8546600341798	108.3477935791016	-24.5315456390381	521.6352539062502	69.12994384765628	251.7368652670376	934.2589011725972	255.1983573365438	234.6132875401954	920.1587356684864	118.5950699051299	251.0129547119142	1450.585906982422	182.7768540382386	219.3300361633302	1001.627548217774	186.1801280975343	
190	0.756	342.2706604003907	984.061401367188	277.3752441406251	319.0018920898439	961.2966918945317	71.43430328369143	284.3366699218751	1041.88671875	43.2808303833008	409.9636840820315	851.1677856445317	371.8938903808595	511.6806945800784	850.8964843750005	346.198455810547	561.2688598632815	758.125915527344	352.6875000000001	574.3738403320315	572.625427246094	262.0726318359376	533.463073730469	521.0079345703127	317.8843994140626	473.8716430664065	477.4177551269534	273.489471435547	392.4144592285159	236.1370391845704	286.9214477539064	386.5106201171877	259.5816345214845	393.5478210449221	130.5503387451172	676.668884277344	35.9782066345215	133.9642486572266	774.5661010742192	25.49095535278322	39.83367919921876	633.015808105469	61.66374206542972	-74.57895660400393	391.7107238769534	147.1890106201172	-184.8011474609376	308.0147094726564	158.4674224853516	363.1228332519532	1420.274536132813	205.1961212158204	408.9596252441409	1229.369750976563	216.7854156494142	228.936492919922	1453.735961914063	379.3416442871095	293.4805297851564	1452.651611328125	-23.56625175476075	-372.0006713867189	71.87859344482425	78.76591491699222	165.7660369873047	1033.917602539063	243.6989135742189	-130.9714508056641	341.8269348144532	102.278434753418	-340.6171264648439	62.81373596191409	186.467514038086	269.1912231445314	1058.806518554688	343.6859741210939	-401.9224853515627	276.4457397460939	169.6841583251954	169.2128906250001	1215.70458984375	166.5847473144532	227.8318481445314	1479.08642578125	175.8296813964844	162.3575134277344	1030.079833984375	146.6436157226563	234.8692932128907	389.0477600097659	280.0413513183595	605.120544433594	707.3928833007815	337.1929626464845	309.0943603515626	396.4485168457034	336.3548278808595	-353.1477966308595	244.7540893554689	105.3346023559571	-4.306420326232912	528.775085449219	71.73696899414065	278.2448217758913	935.533316136828	254.0963596306433	262.8858053020663	920.5070137925871	118.1609177094223	278.3429260253907	1451.437133789063	184.2002987861634	247.3490257263184	1002.338882446289	184.7880191802979	
191	0.76	368.5016174316407	984.3115844726567	276.6345520019532	347.7745056152345	960.8174438476567	71.442985534668	314.8983459472657	1041.395385742188	42.46224975585939	434.4059753417971	853.567504882813	372.5611267089845	536.4339599609377	853.887084960938	348.3246459960939	585.997009277344	760.700378417969	354.140106201172	609.3094482421877	574.5759277343752	262.3647460937501	572.3611450195315	519.3315429687502	317.2465209960939	515.5650024414065	472.4480285644534	272.7798156738282	451.3405456542971	226.5236053466798	282.325897216797	442.6322937011721	247.3404846191407	389.4619750976565	154.3028717041016	680.5291137695315	36.92606735229494	159.9462127685547	778.3842163085942	25.45117568969728	62.80873870849612	639.7467041015627	64.52745056152347	-56.47531509399417	398.9327087402346	150.2138214111329	-167.2933807373047	315.9726562500001	159.3773040771485	390.1924743652346	1420.970581054688	206.5291748046876	435.879577636719	1229.285400390625	218.628143310547	254.5493316650392	1453.384033203125	379.5843505859376	322.8551025390626	1454.324951171875	-21.58179664611817	-362.9152221679689	80.22698211669925	79.58530426025393	192.9642791748048	1036.034057617188	241.3957977294923	-112.0796508789063	349.177703857422	104.0814743041993	-333.407928466797	72.79362487792972	185.6798858642579	296.7975158691407	1060.127807617188	343.8117065429689	-381.1206970214845	290.6076965332032	165.4897918701172	197.4647521972657	1215.781127929688	163.6901550292969	255.3560791015626	1479.219360351563	176.7720336914063	190.7759857177735	1031.183471679688	144.5921173095704	282.570281982422	366.7230224609376	276.8440551757814	631.2564697265627	710.3359985351565	337.6682128906251	356.0476379394532	379.0635375976564	333.3596801757814	-333.6551208496095	255.4132385253907	102.7395172119141	17.82338905334473	534.7331542968752	74.05103302001956	304.4214362275829	936.5405130251283	252.8888112650298	290.7400845286843	921.0327276857555	117.4479446670696	305.7382469177247	1451.974731445313	185.3259406089783	275.0040969848634	1003.086639404297	183.516363143921	
192	0.764	394.6467590332034	984.4315795898442	276.0948181152345	376.1314086914064	960.988159179688	71.42641448974612	344.808807373047	1041.23681640625	41.71332168579103	458.2703247070315	855.1246948242192	373.2202758789064	560.651550292969	855.7155151367192	350.6619262695314	610.0026855468752	762.597839355469	355.7613525390626	642.9750976562502	575.5457763671877	262.8007812500001	610.2855224609377	516.973327636719	317.0211486816407	556.5772705078127	467.1597595214846	272.1620178222657	510.0014343261721	218.2508544921876	277.5378723144532	498.656188964844	235.8939361572267	385.0654907226565	180.3529815673829	683.9758911132815	37.55283737182619	187.5970001220704	782.0161132812505	25.34705162048341	88.11021423339847	645.4914550781252	65.76514434814456	-37.27562332153322	405.8859558105471	153.7278289794922	-149.2882385253907	324.6655883789064	160.8910369873047	417.6861572265627	1421.1630859375	208.3584442138673	462.7474060058596	1228.91357421875	220.4231414794923	280.162078857422	1453.108520507813	379.9178466796876	352.6167907714845	1455.709838867188	-19.76306915283204	-351.1169433593751	88.463005065918	82.40840148925784	220.3860168457032	1038.477905273438	239.347381591797	-91.89040374755862	355.4928283691407	106.2437896728516	-325.4269104003907	83.22581481933597	187.1259307861329	324.0332031250001	1061.305297851563	343.6439514160157	-360.6639709472657	304.6791381835939	161.383041381836	225.5262145996095	1215.997192382813	160.8343505859376	283.0249633789064	1479.419189453125	177.6659393310547	218.8261108398439	1032.559692382813	142.6871032714844	330.9267883300782	345.0316467285157	272.0070800781251	656.898376464844	711.7783813476565	338.3643188476564	403.1888427734377	361.8966369628907	330.5139770507814	-314.0275268554689	266.5003967285157	100.6371307373047	41.80069732666017	538.5753173828127	76.04701232910159	330.4439556865967	937.5148632859729	251.7494341086844	318.2225175186251	922.0405510153748	116.6538407944285	333.3724975585939	1452.350158691406	186.5447902679444	302.4975738525392	1004.114334106446	182.3889293670655	
